<svg width="70" height="73" viewBox="0 0 70 73" fill="none" xmlns="http://www.w3.org/2000/svg">
<g filter="url(#filter0_d_159_91)">
<path d="M20.9803 64.907C17.4897 64.372 14.594 62.56 12.6876 59.717C11.9566 58.6275 11.272 56.989 11.0276 55.7455C10.8226 54.703 10.8061 54.2 10.8061 48.949V43.677H10.2641C9.31949 43.677 8.36234 43.457 7.53644 43.0565C6.24729 42.428 5.42709 41.139 5.15629 39.3155C5.03479 38.497 5.03529 37.679 5.15789 37.2665C5.53089 36.0105 7.52789 35.846 8.02289 37.0315C8.08689 37.1865 8.11789 37.4615 8.11839 37.886C8.12079 39.138 8.31639 39.806 8.80169 40.2215C9.15419 40.5215 9.56489 40.6465 10.2253 40.6515L10.7753 40.6545L10.7903 36.9425L10.8053 33.23H34.9108H59.0164V36.924V40.6185L59.2379 40.6685C59.3594 40.6685 59.6689 40.7185 59.9253 40.6685C61.3696 40.5635 61.8835 39.8335 61.8872 37.889C61.8885 37.219 61.9657 36.928 62.2122 36.6635C62.7533 36.0835 63.8977 36.093 64.4871 36.6635C64.8811 37.0585 64.9726 37.4245 64.9216 38.406C64.8136 40.479 64.1322 41.9765 62.9356 42.7695C62.0783 43.337 61.1896 43.592 59.8876 43.644L59.0168 43.694V48.9125C59.0168 54.2815 58.9968 54.77 58.7623 55.9285C58.4353 57.5275 57.6434 59.2655 56.6512 60.5615C56.2552 61.0785 55.3489 62.0115 54.8313 62.435C53.5599 63.475 52.0811 64.2285 50.5134 64.634C49.0106 65.024 49.8532 65.004 35.0253 64.999C23.8862 64.999 21.4342 64.997 20.9803 64.907ZM10.8063 29.1035V26.934H20.9692H31.1321L31.2336 26.614C31.3591 26.214 31.7031 25.6335 31.983 25.345L32.193 25.13V23.5285V21.927H34.9122H37.6313V23.5285V25.13L37.8413 25.345C38.1213 25.635 38.4654 26.216 38.5908 26.614L38.6923 26.934H48.8552H59.0181V29.1035V31.2725H34.912H10.806L10.8063 29.1035ZM20.0155 24.2765C19.6365 24.1815 19.2794 23.9215 19.0552 23.5845C18.6587 22.986 18.6582 22.4875 19.0531 21.7305C19.4271 21.014 19.5481 20.6215 19.5862 19.999C19.6517 18.933 19.4152 18.12 18.3861 15.874C17.4419 13.814 17.2822 13.3505 17.1542 12.2995C16.9442 10.574 17.6624 8.62402 19.0712 7.09552C19.5866 6.53652 20.1739 6.35402 20.8375 6.54702C21.2315 6.66202 21.6895 7.03202 21.8689 7.38552C22.0094 7.66052 22.0269 8.14952 21.9039 8.43652C21.8589 8.54652 21.6989 8.77152 21.5499 8.93852C21.0829 9.46552 20.8969 9.73202 20.6772 10.1905C20.3927 10.7845 20.3162 11.1935 20.3507 11.932C20.3857 12.6885 20.5947 13.343 21.3103 14.9445C21.9338 16.34 22.1721 16.967 22.3716 17.738C22.8671 19.651 22.7221 21.189 21.8886 22.873C21.5951 23.4655 21.2554 23.9525 21.0091 24.133C20.7826 24.298 20.3502 24.3615 20.0155 24.2765ZM26.8876 23.8015C26.6161 23.7165 26.1083 23.2505 25.9441 22.9385C25.7596 22.5885 25.7546 21.8735 25.9341 21.5265C26.7948 19.862 26.8471 19.678 26.8447 18.3185C26.8425 17.117 26.7772 16.776 26.1477 14.6825C25.4285 12.2905 25.2803 11.551 25.2778 10.341C25.2745 8.77952 25.6393 7.53202 26.4719 6.25452C27.1122 5.27202 27.4639 5.00102 28.0992 4.99952C28.5337 4.99852 28.9707 5.19952 29.2814 5.54452C29.5804 5.87452 29.6879 6.13602 29.6879 6.52502C29.6879 6.91002 29.5964 7.13202 29.1677 7.77652C28.3665 8.98052 28.1863 10.272 28.5826 11.971C28.6481 12.251 28.8981 13.109 29.1375 13.8745C29.8497 16.1505 30.0415 17.2425 29.9717 18.624C29.9082 19.884 29.6317 20.9315 29.0437 22.1375C28.5777 23.094 28.2475 23.564 27.9206 23.737C27.6296 23.892 27.2427 23.9165 26.8876 23.8015Z" fill="#FFA100"/>
</g>
<defs>
<filter id="filter0_d_159_91" x="-4" y="0" width="78" height="78" filterUnits="userSpaceOnUse" color-interpolation-filters="sRGB">
<feFlood flood-opacity="0" result="BackgroundImageFix"/>
<feColorMatrix in="SourceAlpha" type="matrix" values="0 0 0 0 0 0 0 0 0 0 0 0 0 0 0 0 0 0 127 0" result="hardAlpha"/>
<feOffset dy="4"/>
<feGaussianBlur stdDeviation="2"/>
<feComposite in2="hardAlpha" operator="out"/>
<feColorMatrix type="matrix" values="0 0 0 0 0 0 0 0 0 0 0 0 0 0 0 0 0 0 0.25 0"/>
<feBlend mode="normal" in2="BackgroundImageFix" result="effect1_dropShadow_159_91"/>
<feBlend mode="normal" in="SourceGraphic" in2="effect1_dropShadow_159_91" result="shape"/>
</filter>
</defs>
</svg>
