<svg width="61" height="40" viewBox="0 0 61 40" fill="none" xmlns="http://www.w3.org/2000/svg">
<path d="M43.7906 14.5482C47.5418 14.5482 50.5828 11.5073 50.5828 7.75606C50.5828 4.00483 47.5418 0.963867 43.7906 0.963867C40.0394 0.963867 36.9984 4.00483 36.9984 7.75606C36.9984 11.5073 40.0394 14.5482 43.7906 14.5482Z" fill="#FFA100"/>
<path d="M52.3078 16.2734H36.8367C34.6265 16.2734 32.4164 16.5969 30.7992 18.7531C30.0984 19.8312 23.6836 27.9172 23.6836 27.9172H14.6273C13.0101 27.9172 11.6625 29.2648 11.6625 30.882C11.6625 32.4992 13.0101 33.8469 14.6273 33.8469H24.9234C25.6781 33.8469 26.4328 33.5234 26.9718 32.9844L33.0094 25.6531C33.1711 25.4914 33.3328 25.3836 33.6023 25.3836C34.0875 25.3836 34.4648 25.707 34.4648 26.2461V39.5609H53.1703V26.4617C53.1703 25.9766 53.4937 25.5992 54.0328 25.5992C54.5179 25.5992 54.8953 25.9227 54.8953 26.4617V39.6148H60.825V24.7906C60.825 20.1008 56.9976 16.2734 52.3078 16.2734Z" fill="#FFA100"/>
<path d="M23.7914 24.3594H0.342163V26.3539H23.7914V24.3594Z" fill="#FFA100"/>
<path d="M13.0101 14.7639C13.1719 14.5482 13.2797 14.3326 13.2797 14.0092C13.2797 13.3623 12.7406 12.8232 12.0937 12.8232C11.4469 12.8232 10.9078 13.3623 10.9078 14.0092C10.9078 14.2787 11.0156 14.5482 11.1773 14.7639C7.02655 15.249 3.63046 18.6451 2.44452 23.1732H21.6351C20.4492 18.5373 17.0531 15.1951 13.0101 14.7639Z" fill="#FFA100"/>
</svg>
