<svg width="60" height="60" viewBox="0 0 60 60" fill="none" xmlns="http://www.w3.org/2000/svg">
<path d="M52.2523 24.625L53.7273 49.35C53.7773 50.025 53.4523 50.475 53.2773 50.675C53.0773 50.9 52.6523 51.25 51.9523 51.25H45.1273L50.5273 24.625H52.2523ZM55.0023 15L54.9773 15.05C55.0273 15.65 54.9773 16.275 54.8273 16.9L36.4023 50.725C35.8023 53.25 33.5523 55 30.9523 55H51.9523C55.1773 55 57.7273 52.275 57.4773 49.05L55.0023 15Z" fill="#FFA100"/>
<path d="M28.6255 5.60341C28.8755 4.60341 28.2505 3.57841 27.2505 3.32841C26.2505 3.10341 25.2255 3.70341 24.9756 4.70341L23.7256 9.87841H27.5755L28.6255 5.60341Z" fill="#FFA100"/>
<path d="M45.1273 5.52147C45.3523 4.49647 44.7023 3.52147 43.6773 3.29647C42.6773 3.07147 41.6773 3.72147 41.4523 4.74647L40.3273 9.92147H44.1773L45.1273 5.52147Z" fill="#FFA100"/>
<path d="M54.5495 13.3285C53.7245 11.3285 51.7745 9.90352 49.3745 9.90352H44.1745L42.7745 16.3785C42.5745 17.2535 41.7995 17.8535 40.9495 17.8535C40.8245 17.8535 40.6745 17.8535 40.5495 17.8035C39.5495 17.5785 38.8995 16.5785 39.0995 15.5785L40.3245 9.87852H27.5745L25.9995 16.3785C25.7995 17.2285 25.0245 17.8035 24.1744 17.8035C24.0244 17.8035 23.8744 17.7785 23.7244 17.7535C22.7244 17.5035 22.0994 16.5035 22.3494 15.4785L23.6994 9.85352H18.6244C16.1744 9.85352 13.9994 11.4535 13.2744 13.8035L2.74938 47.6785C1.64939 51.3035 4.32438 55.0035 8.09938 55.0035H40.9495C43.5495 55.0035 45.7995 53.2535 46.3995 50.7285L54.8245 16.9035C54.9745 16.2785 55.0245 15.6535 54.9745 15.0535C54.9245 14.4535 54.7995 13.8535 54.5495 13.3285ZM36.7495 41.8785H16.7494C15.7244 41.8785 14.8744 41.0285 14.8744 40.0035C14.8744 38.9785 15.7244 38.1285 16.7494 38.1285H36.7495C37.7745 38.1285 38.6245 38.9785 38.6245 40.0035C38.6245 41.0285 37.7745 41.8785 36.7495 41.8785ZM39.2495 31.8785H19.2494C18.2244 31.8785 17.3744 31.0285 17.3744 30.0035C17.3744 28.9785 18.2244 28.1285 19.2494 28.1285H39.2495C40.2745 28.1285 41.1245 28.9785 41.1245 30.0035C41.1245 31.0285 40.2745 31.8785 39.2495 31.8785Z" fill="#FFA100"/>
</svg>
