<svg width="60" height="64" viewBox="0 0 60 64" fill="none" xmlns="http://www.w3.org/2000/svg">
<path d="M40.8554 33.7691C40.7711 32.7014 39.8314 31.8196 38.7606 31.8032L31.6737 31.6946C31.2621 31.6883 30.8448 31.3259 30.7809 30.9192L29.2194 20.9922C29.1629 20.6327 28.8276 19.1665 26.9971 19.1665L18.1842 19.5503C17.0232 19.6007 16.0794 20.1652 16.0794 21.7495C16.0794 21.7495 16.0423 43.8136 15.9972 44.6132L15.6888 50.0722C15.6476 50.8013 15.3635 51.9814 15.0685 52.6492L11.5014 60.723C11.266 61.2557 11.2698 61.8447 11.5121 62.3388C11.7544 62.8329 12.2174 63.1968 12.7828 63.3372L13.9704 63.632C14.1471 63.6759 14.3321 63.698 14.5201 63.698C15.4787 63.698 16.3957 63.1417 16.8021 62.3136L20.1929 55.402C20.5674 54.6386 21.0335 53.3448 21.2321 52.5179L23.1454 44.5476L27.7757 51.6286C28.1575 52.2125 28.5611 53.3328 28.6395 54.0261L29.5346 61.9537C29.6619 63.0821 30.6897 64.0002 31.8256 64.0002L33.1799 63.9956C33.761 63.9935 34.2893 63.7617 34.6676 63.3424C35.0457 62.9233 35.2226 62.3742 35.1652 61.7961L34.2303 52.3708C34.1441 51.5015 33.8319 50.1816 33.5195 49.3657L29.3705 38.5289L29.3449 36.2444L38.9877 35.8874C39.526 35.8675 40.0179 35.637 40.3727 35.2385C40.7274 34.84 40.8995 34.3248 40.857 33.7871L40.8554 33.7691Z" fill="#FFA100"/>
<path d="M21.0015 17.0713C21.7433 17.0713 22.477 16.9448 23.1819 16.695C24.8273 16.1128 26.1473 14.9246 26.8987 13.3492C27.4301 12.2353 27.6306 11.0223 27.4975 9.82561L29.6874 9.57854C30.4505 9.49244 31.2251 8.88377 31.4891 8.16271L32.2226 6.15958C32.3792 5.73164 32.3379 5.29863 32.1093 4.97134C31.8864 4.65232 31.5108 4.46932 31.0788 4.46932C31.0288 4.46932 30.977 4.47172 30.9238 4.47679L24.5918 5.07905C23.548 4.3915 22.3066 4 21.0008 4C20.2592 4 19.5258 4.12641 18.8207 4.37588C17.1754 4.95852 15.8554 6.14689 15.1038 7.72223C14.3521 9.29756 14.2591 11.0711 14.8418 12.7161C15.7642 15.3211 18.2396 17.0713 21.0015 17.0713Z" fill="#FFA100"/>
<path d="M48.6675 27.2985L48.0375 18.2428C47.9626 17.1673 47.0248 16.2925 45.943 16.2925L33.8379 16.3136C33.2959 16.3145 32.7978 16.5295 32.4351 16.919C32.0726 17.3084 31.8935 17.8206 31.9312 18.3613L32.5613 27.417C32.6361 28.4924 33.574 29.3673 34.6521 29.3673L46.7609 29.3462C47.3028 29.3452 47.8009 29.1303 48.1636 28.7408C48.5261 28.3513 48.7051 27.839 48.6675 27.2985Z" fill="#FFA100"/>
<path d="M31.7524 22.797C31.7524 22.6068 31.7566 22.416 31.7765 22.229H29.519C29.5053 22.416 29.5016 22.6068 29.5016 22.797C29.5016 22.991 29.5053 23.178 29.519 23.3651H31.7765C31.7566 23.1781 31.7524 22.9878 31.7524 22.797Z" fill="#FFA100"/>
<path d="M35.7457 15.5175C35.959 15.3825 36.1771 15.2548 36.3983 15.1423L36.4845 15.1003L35.3595 13.146C35.0778 13.2884 34.8035 13.446 34.5375 13.619L35.6631 15.5733L35.7457 15.5175Z" fill="#FFA100"/>
<path d="M30.7328 17.7725L32.6877 18.8976L33.1606 18.0768L31.2052 16.9512C31.0329 17.2176 30.8753 17.4909 30.7328 17.7725Z" fill="#FFA100"/>
<path d="M48.038 26.7812C47.9208 27.003 47.7973 27.2205 47.6586 27.4307L47.6024 27.5133L49.5578 28.6389C49.7301 28.3725 49.8878 28.1029 50.0339 27.8213L48.0833 26.6919L48.038 26.7812Z" fill="#FFA100"/>
<path d="M32.7287 26.7781L32.6835 26.6919L30.7328 27.817C30.8716 28.0987 31.0329 28.3725 31.2053 28.6389L33.1607 27.5133L33.104 27.4307C32.9688 27.2205 32.8417 27.003 32.7287 26.7781Z" fill="#FFA100"/>
<path d="M35.7457 30.0724L35.6631 30.0156L34.5375 31.971C34.8035 32.1438 35.0777 32.3046 35.3595 32.4476L36.4845 30.4927L36.3983 30.4512C36.177 30.3389 35.9589 30.2111 35.7457 30.0724Z" fill="#FFA100"/>
<path d="M46.2255 13.619C45.9597 13.446 45.6885 13.2884 45.4084 13.146L44.2786 15.0972L45.0999 15.5733L46.2255 13.619Z" fill="#FFA100"/>
<path d="M39.8151 31.4036V33.6585C40.0027 33.6753 40.1929 33.6784 40.3826 33.6784C40.5739 33.6784 40.7641 33.6753 40.9512 33.6585V31.4036V31.3799H39.8151V31.4036Z" fill="#FFA100"/>
<path d="M40.9512 14.191V11.936C40.7641 11.9192 40.5739 11.9155 40.3826 11.9155C40.1929 11.9155 40.0027 11.9192 39.8151 11.936V14.191V14.2146H40.9512V14.191Z" fill="#FFA100"/>
<path d="M44.2786 30.4964L45.4084 32.4476C45.6885 32.3004 45.9597 32.1438 46.2255 31.971L45.0999 30.0156L44.2786 30.4964Z" fill="#FFA100"/>
<path d="M50.0339 17.7725C49.8909 17.4909 49.7301 17.2176 49.5577 16.9512L47.6024 18.0768L48.0795 18.8976L50.0339 17.7725Z" fill="#FFA100"/>
<path d="M51.2478 22.229H48.9897H48.966V23.3651H48.9897H51.2478C51.2614 23.1781 51.2646 22.9878 51.2646 22.797C51.2646 22.6068 51.2614 22.416 51.2478 22.229Z" fill="#FFA100"/>
<path d="M53.952 10.7152C53.952 10.7152 53.8905 11.8902 52.7643 12.3904C51.6382 12.8912 50.5121 11.7651 52.139 10.5133C53.7654 9.26161 53.6404 5.13329 52.139 3.88158C52.5142 4.8826 50.9493 6.2594 49.9493 5.38347C48.9477 3.75656 50.0113 1.06603 51.5131 0.315556C50.387 -0.561459 47.0706 0.440142 47.0706 2.69295C47.0706 4.48492 47.1331 5.19594 45.6313 5.13336C43.9875 5.06399 45.3817 2.25423 45.6313 1.87895C40.751 2.56735 43.504 6.88479 41.6269 7.00938C39.7499 7.13497 40.8765 5.13329 41.0016 4.88216C37.7378 5.42495 38.5334 7.46544 36.2579 9.20495C30.426 10.9721 26.1805 16.3874 26.18 22.7974C26.1805 30.642 32.5385 36.9995 40.3826 37C48.2272 36.9995 54.5852 30.642 54.5857 22.7973C54.5857 20.9849 54.2426 19.2539 53.6241 17.66C53.7786 15.7519 54.4659 14.5827 54.6961 13.6358C55.2116 11.517 53.952 10.7152 53.952 10.7152ZM40.3826 35.1675C36.9637 35.167 33.8769 33.7844 31.6357 31.5443C29.3955 29.3025 28.0129 26.2158 28.0124 22.7974C28.0129 19.378 29.3955 16.2912 31.6357 14.05C33.8769 11.8098 36.9637 10.4272 40.3826 10.4272C43.8015 10.4272 46.8882 11.8098 49.13 14.05C51.3703 16.2912 52.7528 19.378 52.7533 22.7974C52.7528 26.2158 51.3702 29.3025 49.13 31.5443C46.8882 33.7844 43.8015 35.167 40.3826 35.1675Z" fill="#FFA100"/>
<path d="M45.2224 16.8847L40.4158 22.0193L36.7047 19.4355C36.3579 19.1796 35.8371 19.2978 35.5433 19.6993C35.2496 20.0997 35.2931 20.6315 35.6416 20.8869L39.8372 24.124L39.895 24.1576L39.9218 24.1717C40.285 24.3741 40.7647 24.2668 41.0847 23.9143L41.1126 23.8869L46.2551 17.8028C46.5484 17.4748 46.5536 17.003 46.2682 16.7491C45.9828 16.4958 45.5146 16.5568 45.2224 16.8847Z" fill="#FFA100"/>
</svg>
